PathFileType	3	(X/Y/Z)	D:\Vicon Database\Healthy Subjects\S0040\Jan. 30, 2020\Force Plate Walk 4.trc
DataRate	CameraRate	NumFrames	NumMarkers	Units	OrigDataRate	OrigDataStartFrame	OrigNumFrames
100.0	100.0	4	53	mm	100.0	405	329	
Frame#	Time	right_foot_cluster2			right_foot_cluster3			sternum_cluster1			sternum_cluster2			sternum_cluster3			left_asis			right_asis			left_psis			right_psis			sacrum_cluster1			sacrum_cluster2			sacrum_cluster3			left_lat_femoral_epicondyle			left_anterior_thigh15			left_anterior_thigh25			left_anterior_thigh50			left_lateral_thigh25			left_lateral_thigh50			left_thigh_cluster1			left_thigh_cluster2			left_thigh_cluster3			left_fibular_head			left_tibial_tuberosity			left_anterior_shank30			left_lateral_malleolus			left_shank_cluster1			left_shank_cluster2			left_shank_cluster3			left_heel			left_metatarsal2			left_foot_cluster1			left_foot_cluster2			left_foot_cluster3			right_lat_femoral_epicondyle			right_anterior_thigh15			right_anterior_thigh25			right_anterior_thigh50			right_lateral_thigh25			right_lateral_thigh50			right_thigh_cluster1			right_thigh_cluster2			right_thigh_cluster3			right_fibular_head			right_tibial_tuberosity			right_lateral_distal_shank			right_anterior_shank30			right_lateral_malleolus			right_shank_cluster1			right_shank_cluster2			right_shank_cluster3			right_heel			right_metatarsal2			right_foot_cluster1			
		X1	Y1	Z1	X2	Y2	Z2	X3	Y3	Z3	X4	Y4	Z4	X5	Y5	Z5	X6	Y6	Z6	X7	Y7	Z7	X8	Y8	Z8	X9	Y9	Z9	X10	Y10	Z10	X11	Y11	Z11	X12	Y12	Z12	X13	Y13	Z13	X14	Y14	Z14	X15	Y15	Z15	X16	Y16	Z16	X17	Y17	Z17	X18	Y18	Z18	X19	Y19	Z19	X20	Y20	Z20	X21	Y21	Z21	X22	Y22	Z22	X23	Y23	Z23	X24	Y24	Z24	X25	Y25	Z25	X26	Y26	Z26	X27	Y27	Z27	X28	Y28	Z28	X29	Y29	Z29	X30	Y30	Z30	X31	Y31	Z31	X32	Y32	Z32	X33	Y33	Z33	X34	Y34	Z34	X35	Y35	Z35	X36	Y36	Z36	X37	Y37	Z37	X38	Y38	Z38	X39	Y39	Z39	X40	Y40	Z40	X41	Y41	Z41	X42	Y42	Z42	X43	Y43	Z43	X44	Y44	Z44	X45	Y45	Z45	X46	Y46	Z46	X47	Y47	Z47	X48	Y48	Z48	X49	Y49	Z49	X50	Y50	Z50	X51	Y51	Z51	X52	Y52	Z52	X53	Y53	Z53	
405	4.04	2251.5776	101.21786	-155.43201	2251.6543	105.68242	-192.67244	2051.6997	1441.2389	-110.41517	2040.8638	1413.4327	-100.5977	2038.1785	1416.1139	-138.65884	2080.1206	1064.343	3.2567801	2066.1621	1064.2064	-244.57408	2242.7095	1078.3662	-48.221603	2236.8699	1083.9436	-165.95203	2248.1174	1138.5667	-113.36014	2253.4785	1113.665	-126.0832	2258.8003	1107.6091	-87.393272	1968.1552	563.08496	32.021442	1907.5288	666.78308	-11.275729	1929.0787	752.45343	-0.67107052	1989.3083	875.44269	9.0424013	2029.562	702.69025	55.461823	2082.5093	842.96722	79.565811	2067.7449	798.26917	85.395599	2059.4426	769.5791	83.170448	2028.3831	790.80347	88.667816	1939.0355	490.57047	40.10099	1881.4673	495.02197	-12.285244	1841.3629	246.99574	-18.799072	1856.2772	119.64346	11.190263	1866.8138	442.97153	-39.210369	1855.9912	417.48706	-29.830723	1869.156	413.40173	-66.276863	1915.6433	64.696274	-31.815556	1707.3773	130.0479	-18.53163	1777.6318	159.11264	-12.189008	1750.478	148.81566	-2.0399027	1746.7534	158.07083	-39.03339	2247.3694	537.90662	-242.77771	2144.0725	601.45258	-183.88103	2098.991	674.71832	-185.67932	2057.6731	801.2652	-204.92044	2197.1826	690.11578	-271.64838	2157.0352	830.7948	-303.07828	2177.7568	781.16718	-307.38861	2173.1516	753.23358	-301.67514	2211.2329	761.46863	-298.86725	2275.0232	474.05457	-243.14091	2224.4136	454.70703	-197.147	2338.5293	210.45776	-222.04449	2291.395	216.05249	-176.40201	2361.7505	108.42888	-204.8074	2246.4631	394.59006	-141.50653	2257.6997	368.98776	-133.50214	2234.635	362.33203	-161.62917	2440.5701	76.846169	-171.16768	2220.5076	66.527687	-167.9612	2275.4199	116.08277	-163.68365
406	4.05	2250.5615	101.21585	-155.47095	2250.7764	105.69874	-192.76665	2037.9209	1438.7482	-109.76935	2027.0844	1410.8315	-100.06555	2024.3964	1413.5295	-138.0488	2066.2827	1061.9644	3.9087999	2052.5273	1061.7301	-244.00745	2228.9292	1075.9937	-47.429279	2223.1426	1081.6027	-165.17802	2234.4124	1136.1924	-112.48967	2239.8035	1111.2644	-125.28796	2245.0667	1105.1881	-86.582512	1954.1655	560.54883	32.449333	1895.484	663.27301	-11.393417	1916.6472	748.39764	-0.22667448	1975.3287	872.20038	10.157938	2017.5607	699.34625	56.120968	2069.2847	840.12085	80.35273	2054.8955	795.48285	86.50502	2046.8042	766.43762	84.035141	2015.994	787.97473	89.697334	1921.7546	489.49603	40.32346	1865.1442	495.51282	-13.119843	1815.2488	249.64453	-18.255482	1824.2158	121.7549	12.359482	1849.1865	444.14804	-39.627937	1836.9386	419.19781	-30.493793	1850.3854	414.49722	-66.621788	1881.0946	63.409798	-29.193302	1676.5599	139.33276	-19.301344	1747.9362	164.79233	-12.336834	1720.3479	155.82326	-2.4513414	1717.6421	164.98096	-39.693569	2240.6379	537.9397	-242.55484	2136.1001	599.74915	-183.58778	2088.7581	672.45935	-185.3643	2046.1304	798.40515	-204.72394	2187.5093	689.24689	-271.46057	2145.1021	829.18707	-302.50418	2167.186	780.19678	-306.9505	2162.8853	752.23389	-301.09451	2200.7239	760.76025	-298.36761	2269.385	474.52267	-242.7903	2218.845	454.33685	-196.96841	2336.2373	211.6911	-222.02347	2288.9541	216.61186	-176.4838	2360.8689	109.57178	-204.68585	2240.6497	394.69659	-141.18141	2252.9856	369.08151	-133.24599	2230.1567	362.21631	-161.7244	2439.7034	78.703087	-171.05707	2220.5073	65.638725	-167.73305	2274.3262	116.21694	-163.85246
407	4.06	2249.501	101.20581	-155.66367	2249.5974	105.65989	-192.98158	2024.204	1436.0077	-109.23688	2013.2366	1408.2438	-99.386269	2010.6382	1410.8921	-137.49037	2052.2859	1059.6235	4.6387997	2038.7358	1059.2522	-243.32651	2215.165	1073.7053	-46.497932	2209.3831	1079.2776	-164.39548	2220.7527	1133.801	-111.59325	2226.0483	1108.8004	-124.44682	2231.2354	1102.6848	-85.748924	1940.2885	558.05365	32.338291	1882.849	660.36469	-11.382198	1904.0264	744.54327	0.25710246	1961.2563	869.11078	11.461592	2004.4468	696.25708	56.467457	2055.7424	837.44366	81.422928	2041.6493	792.4328	87.701904	2033.4603	763.30365	85.088013	2002.7998	784.78217	91.280037	1905.0405	488.34216	40.445026	1849.3036	495.88599	-13.884919	1791.0145	252.06294	-17.668999	1794.7783	123.99415	13.361296	1831.9651	445.0856	-40.07362	1818.5887	420.65036	-30.955793	1832.3077	415.2977	-66.913132	1849.4653	62.619225	-27.017874	1648.5768	147.86934	-20.536362	1720.6405	170.16614	-12.82095	1692.8719	162.69244	-3.208837	1690.842	171.30351	-40.457615	2233.271	537.94818	-242.0018	2127.3545	597.91876	-183.41727	2079.8027	669.90356	-185.11674	2034.4448	795.57025	-204.42754	2177.4841	688.20386	-271.22482	2133.679	828.43909	-303.04123	2155.8882	778.86218	-306.80527	2151.8513	750.95715	-300.92966	2189.7683	759.9519	-297.81625	2262.9072	474.94385	-242.44405	2212.6616	453.90704	-196.82378	2333.6094	213.04868	-222.0139	2286.2056	217.07352	-176.55026	2359.4597	111.06604	-204.49315	2234.7454	394.78949	-141.62953	2247.8086	368.95941	-133.05125	2225.1094	361.82135	-161.57057	2438.8999	80.887917	-170.99733	2219.7651	65.624161	-167.69414	2272.9875	116.50977	-164.18398
408	4.07	2248.2869	101.12156	-155.84192	2248.4207	105.47215	-193.16672	2010.4225	1433.4655	-108.64229	1999.245	1405.7451	-98.658302	1996.8109	1408.3416	-136.78293	2038.1508	1057.317	5.4299192	2024.8285	1056.8199	-242.63435	2201.1963	1071.3621	-45.596901	2195.5732	1076.9587	-163.53833	2206.8728	1131.3838	-110.74096	2212.1038	1106.3821	-123.56204	2217.2866	1100.2628	-84.828537	1925.5238	555.70123	32.755455	1869.5541	658.40118	-11.559427	1890.7714	741.42993	0.80563432	1946.9283	866.53357	12.86898	1990.6514	693.48401	57.038265	2041.5664	834.96002	82.630318	2027.6151	789.50092	88.810837	2019.6198	760.67474	86.287811	1988.8167	781.72974	92.892044	1888.8206	487.11084	40.521435	1833.5254	496.19278	-14.438553	1768.3438	254.05037	-17.421263	1768.0043	126.05339	13.911665	1815.2153	445.6618	-40.654476	1801.0913	421.59567	-31.323839	1815.2019	415.42966	-67.318718	1820.5107	61.899002	-25.347044	1622.9106	155.14455	-21.158876	1696.1721	174.67786	-13.579365	1667.764	168.59087	-3.886493	1666.6191	176.75388	-41.419704	2224.8206	537.55634	-241.68039	2117.8037	596.03558	-183.30815	2069.1282	667.57214	-184.92841	2022.3827	792.89624	-204.11403	2166.718	687.06067	-270.99921	2121.4438	826.28204	-302.01984	2144.3076	777.49554	-306.41885	2140.5249	749.55798	-300.63892	2178.3333	758.92566	-297.41586	2255.5745	475.13278	-242.13983	2205.6584	453.17383	-196.5424	2330.8677	214.53848	-221.83604	2283.1318	217.65144	-176.49234	2358.1838	112.57514	-204.64474	2228.4287	393.02701	-140.81265	2242.175	368.82999	-132.97063	2219.5232	361.39108	-161.39728	2437.9553	83.426651	-170.94418	2219.1467	65.006454	-167.9514	2271.6899	116.80737	-164.23195
